<svg xmlns="http://www.w3.org/2000/svg" width="128" height="128" viewBox="0 0 128 128" fill="none" role="img" aria-label="67">
  <defs>
    <linearGradient id="g" x1="18" y1="18" x2="110" y2="110" gradientUnits="userSpaceOnUse">
      <stop stop-color="#7A5CFF"/>
      <stop offset="0.55" stop-color="#39FFCC"/>
      <stop offset="1" stop-color="#FF4D6D"/>
    </linearGradient>
    <filter id="glow" x="-50%" y="-50%" width="200%" height="200%" color-interpolation-filters="sRGB">
      <feGaussianBlur stdDeviation="3" result="b"/>
      <feColorMatrix in="b" type="matrix" values="1 0 0 0 0  0 1 0 0 0  0 0 1 0 0  0 0 0 0.9 0" result="c"/>
      <feMerge>
        <feMergeNode in="c"/>
        <feMergeNode in="SourceGraphic"/>
      </feMerge>
    </filter>
  </defs>

  <!-- Rounded cyber tile -->
  <rect x="14" y="14" width="100" height="100" rx="24" fill="rgba(14,16,48,0.9)" stroke="url(#g)" stroke-width="3"/>

  <!-- Subtle grid lines -->
  <g opacity="0.18">
    <path d="M28 34H100" stroke="url(#g)" stroke-width="1"/>
    <path d="M28 54H100" stroke="url(#g)" stroke-width="1"/>
    <path d="M28 74H100" stroke="url(#g)" stroke-width="1"/>
    <path d="M28 94H100" stroke="url(#g)" stroke-width="1"/>
    <path d="M34 28V100" stroke="url(#g)" stroke-width="1"/>
    <path d="M54 28V100" stroke="url(#g)" stroke-width="1"/>
    <path d="M74 28V100" stroke="url(#g)" stroke-width="1"/>
    <path d="M94 28V100" stroke="url(#g)" stroke-width="1"/>
  </g>

  <!-- 67 -->
  <g filter="url(#glow)">
    <path d="M44 50c0-9 7-16 16-16h20v10H60c-3 0-6 3-6 6v6h20v10H54v22H44V50z" fill="url(#g)"/>
    <path d="M92 34H66v10h18L66 90v4h28V84H76l16-38v-12z" fill="url(#g)"/>
  </g>
</svg>
